HIERARCHY
ROOT SpineBase
{
  OFFSET 0.000000 0.000000 0.000000
  CHANNELS 6 Xposition Yposition Zposition Zrotation Xrotation Yrotation
  JOINT SpineMid
  {
    OFFSET 0.000000 31.170647 0.000000
    CHANNELS 3 Zrotation Xrotation Yrotation
    JOINT SpineShoulder
    {
      OFFSET 0.205093 23.090105 -0.749778
      CHANNELS 3 Zrotation Xrotation Yrotation
      JOINT Neck
      {
        OFFSET 0.138630 7.627547 -0.590709
        CHANNELS 3 Zrotation Xrotation Yrotation
        JOINT Head
        {
          OFFSET -7.987460 12.241919 -3.650790
          CHANNELS 3 Zrotation Xrotation Yrotation
          End Site
          {
            OFFSET 0 0 0
          }
        }
      }
      JOINT ShoulderLeft
      {
        OFFSET -17.183708 -7.695195 7.318381
        CHANNELS 3 Zrotation Xrotation Yrotation
        JOINT ElbowLeft
        {
          OFFSET 0.551736 -14.524044 -22.549246
          CHANNELS 3 Zrotation Xrotation Yrotation
          JOINT WristLeft
          {
            OFFSET -16.077478 6.826309 -16.598139
            CHANNELS 3 Zrotation Xrotation Yrotation
            JOINT HandLeft
            {
              OFFSET -4.379218 0.577149 -2.127714
              CHANNELS 3 Zrotation Xrotation Yrotation
              JOINT HandTipLeft
              {
                OFFSET -2.960297 0.631619 -11.444881
                CHANNELS 3 Zrotation Xrotation Yrotation
                End Site
                {
                  OFFSET 0 0 0
                }
              }
              JOINT ThumbLeft
              {
                OFFSET 7.660447 -1.925997 -8.433276
                CHANNELS 3 Zrotation Xrotation Yrotation
                End Site
                {
                  OFFSET 0 0 0
                }
              }
            }
          }
        }
      }
      JOINT ShoulderRight
      {
        OFFSET 14.590992 -1.706952 -8.536913
        CHANNELS 3 Zrotation Xrotation Yrotation
        JOINT ElbowRight
        {
          OFFSET 9.472213 -23.081590 -4.744043
          CHANNELS 3 Zrotation Xrotation Yrotation
          JOINT WristRight
          {
            OFFSET -22.954891 3.755241 -11.529056
            CHANNELS 3 Zrotation Xrotation Yrotation
            JOINT HandRight
            {
              OFFSET -4.996951 1.238536 -2.071220
              CHANNELS 3 Zrotation Xrotation Yrotation
              JOINT HandTipRight
              {
                OFFSET -5.528885 0.556409 -1.745278
                CHANNELS 3 Zrotation Xrotation Yrotation
                End Site
                {
                  OFFSET 0 0 0
                }
              }
              JOINT ThumbRight
              {
                OFFSET -3.163184 2.263583 -0.594590
                CHANNELS 3 Zrotation Xrotation Yrotation
                End Site
                {
                  OFFSET 0 0 0
                }
              }
            }
          }
        }
      }
    }
  }
  JOINT HipLeft
  {
    OFFSET -5.527507 -0.324246 -0.125604
    CHANNELS 3 Zrotation Xrotation Yrotation
    JOINT KneeLeft
    {
      OFFSET 0.706160 -34.092985 3.532503
      CHANNELS 3 Zrotation Xrotation Yrotation
      JOINT AnkleLeft
      {
        OFFSET 5.616715 -36.370472 8.468369
        CHANNELS 3 Zrotation Xrotation Yrotation
        JOINT FootLeft
        {
          OFFSET -3.738076 -3.984925 -12.311591
          CHANNELS 3 Zrotation Xrotation Yrotation
          End Site
          {
            OFFSET 0 0 0
          }
        }
      }
    }
  }
  JOINT HipRight
  {
    OFFSET 7.142757 2.261427 -7.014107
    CHANNELS 3 Zrotation Xrotation Yrotation
    JOINT KneeRight
    {
      OFFSET 7.440360 -34.681998 1.222963
      CHANNELS 3 Zrotation Xrotation Yrotation
      JOINT AnkleRight
      {
        OFFSET 3.461115 -36.405090 7.212513
        CHANNELS 3 Zrotation Xrotation Yrotation
        JOINT FootRight
        {
          OFFSET -2.791426 -7.358829 -4.814553
          CHANNELS 3 Zrotation Xrotation Yrotation
          End Site
          {
            OFFSET 0 0 0
          }
        }
      }
    }
  }
}
MOTION
Frames: 9
Frame Time: 0.033333
-71.338152 78.287419 320.496538 2.172078 -1.229980 28.718535 0.016078 -0.186510 -28.607154 0.181091 -0.038977 0.128505 3.928387 0.491007 0.966377 0.000000 0.000000 0.000000 -3.261622 -7.359606 0.767063 1.083619 3.945424 -10.823737 -15.538764 8.755443 5.137483 13.832651 -5.283302 0.942087 0.000000 0.000000 0.000000 0.000000 0.000000 0.000000 -16.192697 8.898360 7.204109 32.817097 -18.150039 4.275796 -14.116397 7.958740 -1.195295 -10.933272 1.457367 -43.953371 0.000000 0.000000 0.000000 0.000000 0.000000 0.000000 -1.314909 2.121757 -28.670867 -0.970547 1.172545 -0.035099 6.716654 -17.816199 -1.881597 0.000000 0.000000 0.000000 -2.180794 2.468842 -28.692588 0.223459 0.879967 -0.004336 -1.016387 15.696789 -4.426894 0.000000 0.000000 0.000000
-71.331613 78.257300 320.471620 2.188724 -1.226453 28.743869 0.011204 -0.185955 -28.631896 0.172697 -0.036972 0.128413 4.012743 0.464773 0.977131 0.000000 0.000000 0.000000 -3.311668 -7.170287 0.853644 1.042135 4.030384 -10.590968 -13.985532 8.152643 3.922734 12.713829 -5.181329 0.604154 0.000000 0.000000 0.000000 0.000000 0.000000 0.000000 -18.917653 9.826258 8.654728 34.340488 -19.306430 3.970116 -11.824090 7.502319 0.516896 -14.054035 3.593677 -44.003152 0.000000 0.000000 0.000000 0.000000 0.000000 0.000000 -1.330275 2.127239 -28.695742 -0.990859 1.188628 -0.037007 8.521975 -23.022719 -2.218759 0.000000 0.000000 0.000000 -2.169528 2.489048 -28.712329 0.198911 0.820692 -0.015474 -4.276503 26.396360 -5.115338 0.000000 0.000000 0.000000
-71.336998 78.250410 320.441391 2.183774 -1.212433 28.860048 0.009577 -0.185522 -28.748700 0.152583 -0.032367 0.126519 4.020441 0.471845 0.990471 0.000000 0.000000 0.000000 -3.304147 -6.929821 0.897861 0.972382 4.324827 -9.768210 -12.791930 7.506653 -0.487845 12.384704 -4.973404 2.870260 0.000000 0.000000 0.000000 0.000000 0.000000 0.000000 -26.266779 11.446369 12.414234 40.288475 -22.874554 3.110155 -10.079689 7.514032 3.249921 -15.682259 4.861521 -38.547114 0.000000 0.000000 0.000000 0.000000 0.000000 0.000000 -1.328374 2.115271 -28.812414 -0.995040 1.135515 -0.046633 6.839309 -18.302931 -1.410515 0.000000 0.000000 0.000000 -2.125825 2.486486 -28.823951 0.254479 0.634546 -0.021738 -6.280541 29.378033 -4.386499 0.000000 0.000000 0.000000
-71.324091 78.246493 320.415880 2.196778 -1.200769 28.906036 -0.001552 -0.172922 -28.794952 0.135567 -0.036423 0.125299 3.930585 0.531942 1.006161 0.000000 0.000000 0.000000 -3.314929 -6.739046 0.958975 0.343738 4.525090 -10.585452 -11.452613 6.828418 2.577961 11.534193 -5.555432 -0.131247 0.000000 0.000000 0.000000 0.000000 0.000000 0.000000 -27.772138 12.001587 13.397999 39.440253 -22.907456 2.551234 -6.307328 6.190371 4.298003 -15.719298 4.882620 -26.331841 0.000000 0.000000 0.000000 0.000000 0.000000 0.000000 -1.343703 2.112405 -28.858239 -0.990247 1.081591 -0.054380 6.182982 -16.504810 -1.004479 0.000000 0.000000 0.000000 -2.125491 2.509503 -28.863880 0.875791 0.029566 0.036939 -6.560715 26.670562 -3.779766 0.000000 0.000000 0.000000
-71.311497 78.260054 320.385833 2.199701 -1.179714 28.992011 -0.007990 -0.173054 -28.881414 0.108025 -0.030623 0.123000 3.885888 0.645304 1.069829 0.000000 0.000000 0.000000 -3.311340 -6.566016 1.013056 -0.322682 5.157418 -10.654054 -10.161675 5.958238 1.337777 11.141222 -5.061981 0.635662 0.000000 0.000000 0.000000 0.000000 0.000000 0.000000 -26.256087 11.948736 12.762097 36.171034 -21.686251 1.450286 -4.194268 5.454319 5.439654 -13.578203 3.871408 -18.537979 0.000000 0.000000 0.000000 0.000000 0.000000 0.000000 -1.353279 2.097422 -28.944588 -0.984903 1.011617 -0.064622 5.719169 -15.161434 -0.807339 0.000000 0.000000 0.000000 -2.146334 2.475667 -28.955138 0.876472 0.052914 0.041786 -7.248202 26.789951 -3.283143 0.000000 0.000000 0.000000
-71.293166 78.287389 320.355945 2.204273 -1.150941 29.124312 -0.013100 -0.181813 -29.014027 0.072821 -0.014259 0.120096 3.786814 0.791201 1.145847 0.000000 0.000000 0.000000 -3.289503 -6.379329 1.037653 -0.963015 6.000446 -10.072675 -9.170067 5.019355 -2.913973 11.133319 -3.913699 3.518849 0.000000 0.000000 0.000000 0.000000 0.000000 0.000000 -22.023432 11.355158 10.752568 30.712119 -19.247930 0.625069 -3.460095 5.171347 6.309317 -10.885308 2.755701 -13.369594 0.000000 0.000000 0.000000 0.000000 0.000000 0.000000 -1.366412 2.077635 -29.077391 -0.983219 0.941691 -0.075670 5.683512 -14.985598 -0.802241 0.000000 0.000000 0.000000 -2.210448 2.424089 -29.099182 0.905388 0.107697 0.054090 -6.070712 23.010041 -3.151346 0.000000 0.000000 0.000000
-71.291416 78.323461 320.321128 2.186262 -1.109055 29.268200 -0.014701 -0.193661 -29.159438 0.035633 0.009838 0.115849 3.684736 0.902762 1.211172 0.000000 0.000000 0.000000 -3.257304 -6.310392 1.075507 -1.583184 7.044176 -9.200629 -8.114577 3.917398 -9.381285 11.028147 -2.164758 9.353922 0.000000 0.000000 0.000000 0.000000 0.000000 0.000000 -15.476472 10.059333 7.685768 23.783468 -16.008950 0.569150 -5.315574 5.616873 6.250226 -5.515816 0.148448 -11.531987 0.000000 0.000000 0.000000 0.000000 0.000000 0.000000 -1.365907 2.035738 -29.222768 -0.982901 0.883775 -0.085061 2.533192 -6.384857 0.714009 0.000000 0.000000 0.000000 -2.225091 2.350648 -29.252743 0.902908 0.145052 0.061713 -3.102032 13.504702 -2.527050 0.000000 0.000000 0.000000
-71.298555 78.358892 320.291641 2.156820 -1.070034 29.391855 -0.012443 -0.205328 -29.284997 -0.000780 0.038562 0.111122 3.569831 1.019491 1.277641 0.000000 0.000000 0.000000 -3.233331 -6.368166 1.135458 -2.078679 8.397221 -7.543239 -6.919003 2.537442 -16.484535 10.480757 -0.710748 12.908531 0.000000 0.000000 0.000000 0.000000 0.000000 0.000000 -7.340930 7.816360 4.009454 14.299562 -11.278847 1.707137 -3.364989 3.533010 2.696132 -4.157796 0.476202 -6.115581 0.000000 0.000000 0.000000 0.000000 0.000000 0.000000 -1.354953 1.990262 -29.348176 -0.981380 0.816240 -0.095747 0.405125 -0.744002 1.807597 0.000000 0.000000 0.000000 -2.221425 2.276933 -29.384982 0.895084 0.175324 0.067696 0.005736 7.846133 -2.856360 0.000000 0.000000 0.000000
-71.306905 78.394395 320.264257 2.128133 -1.033403 29.511190 -0.009418 -0.214263 -29.406207 -0.033652 0.066756 0.106659 3.489246 1.129071 1.350004 0.000000 0.000000 0.000000 -3.231154 -6.525435 1.222037 -2.613671 9.440277 -6.953170 -5.019515 0.874813 -20.782815 8.820657 0.804427 17.144529 0.000000 0.000000 0.000000 0.000000 0.000000 0.000000 -4.273458 6.866329 2.740015 10.555697 -9.693176 1.786657 -3.380468 2.944885 1.253691 -2.926291 -0.487898 -10.850849 0.000000 0.000000 0.000000 0.000000 0.000000 0.000000 -1.343832 1.947098 -29.469158 -0.981635 0.763167 -0.104470 0.575524 -1.105600 1.703690 0.000000 0.000000 0.000000 -2.196333 2.215333 -29.508884 0.873497 0.186424 0.069265 1.217685 2.795101 -1.864481 0.000000 0.000000 0.000000
